<?xml version="1.0" encoding="UTF-8"?><svg id="a" xmlns="http://www.w3.org/2000/svg" width="3842.41" height="2163.22" viewBox="0 0 3842.41 2163.22"><polygon points="1367.54 2.72 .5 773.61 .5 1012.36 1790.94 2.72 1367.54 2.72" fill="none"/><polygon points="728.34 2.72 .5 413.16 .5 651.91 1151.74 2.72 728.34 2.72" fill="none"/><polygon points="89.13 2.72 .5 52.71 .5 291.46 512.53 2.72 89.13 2.72" fill="none"/><polygon points="2006.74 2.72 .5 1134.05 .5 1372.81 2430.14 2.72 2006.74 2.72" fill="none"/><polygon points="3074.13 2162.72 3840.5 1730.56 3840.5 1491.81 2650.73 2162.72 3074.13 2162.72" fill="none"/><polygon points="2434.93 2162.72 3840.5 1370.11 3840.5 1131.36 2011.53 2162.72 2434.93 2162.72" fill="none"/><polygon points="1795.73 2162.72 3840.5 1009.66 3840.5 770.91 1372.33 2162.72 1795.73 2162.72" fill="none"/><polygon points="3840.5 288.76 3840.5 50.01 93.92 2162.72 517.32 2162.72 3840.5 288.76" fill="none"/><polygon points="1156.52 2162.72 3840.5 649.21 3840.5 410.46 733.12 2162.72 1156.52 2162.72" fill="none"/><polygon points="3285.15 2.72 .5 1854.95 .5 2093.71 3708.55 2.72 3285.15 2.72" fill="none"/><polygon points="2645.94 2.72 .5 1494.5 .5 1733.26 3069.34 2.72 2645.94 2.72" fill="none"/><polygon points="3713.33 2162.72 3840.5 2091.01 3840.5 1852.26 3289.93 2162.72 3713.33 2162.72" fill="none"/><polygon points="2.41 0 2.41 49.98 91.04 0 2.41 0" fill="#902bf5"/><polygon points="514.44 0 2.41 288.74 2.41 410.43 730.25 0 514.44 0" fill="#902bf5"/><polygon points="1153.65 0 2.41 649.19 2.41 770.88 1369.45 0 1153.65 0" fill="#902bf5"/><polygon points="1792.85 0 2.41 1009.64 2.41 1131.33 2008.65 0 1792.85 0" fill="#902bf5"/><polygon points="2432.05 0 2.41 1370.09 2.41 1491.78 2647.85 0 2432.05 0" fill="#902bf5"/><polygon points="3071.25 0 2.41 1730.54 2.41 1852.23 3287.05 0 3071.25 0" fill="#902bf5"/><polygon points="3842.41 0 3710.45 0 2.41 2090.99 2.41 2160 95.83 2160 3842.41 47.28 3842.41 0" fill="#902bf5"/><polygon points="735.03 2160 3842.41 407.73 3842.41 286.04 519.23 2160 735.03 2160" fill="#902bf5"/><polygon points="1374.23 2160 3842.41 768.18 3842.41 646.49 1158.43 2160 1374.23 2160" fill="#902bf5"/><polygon points="2013.44 2160 3842.41 1128.63 3842.41 1006.94 1797.63 2160 2013.44 2160" fill="#902bf5"/><polygon points="2652.64 2160 3842.41 1489.08 3842.41 1367.39 2436.84 2160 2652.64 2160" fill="#902bf5"/><polygon points="3291.84 2160 3842.41 1849.53 3842.41 1727.84 3076.04 2160 3291.84 2160" fill="#902bf5"/><polygon points="3842.41 2160 3842.41 2088.29 3715.24 2160 3842.41 2160" fill="#902bf5"/></svg>