<?xml version="1.0" encoding="UTF-8"?><svg xmlns="http://www.w3.org/2000/svg" width="1868.41" height="1781.87" viewBox="0 0 1868.41 1781.87"><g id="a"><rect x="23.14" y="207.69" width="1789.18" height="169.77" transform="translate(-40.62 195.71) rotate(-11.91)" fill="#fff" stroke="#902bf5" stroke-miterlimit="10" stroke-width="42"/><rect x="58.23" y="571.03" width="1789.18" height="1189.84" rx="33.87" ry="33.87" fill="#902bf5" stroke="#902bf5" stroke-miterlimit="10" stroke-width="42"/></g><g id="b"><rect x="244.79" y="356.53" width="218.27" height="109.64" transform="translate(-77.28 81.9) rotate(-11.91)" fill="#31bacd" stroke="#31bacd" stroke-miterlimit="10" stroke-width="19"/><rect x="675.04" y="265.77" width="218.27" height="109.64" transform="translate(-49.28 168.75) rotate(-11.91)" fill="#31bacd" stroke="#31bacd" stroke-miterlimit="10" stroke-width="19"/><rect x="1126.4" y="170.57" width="218.27" height="109.64" transform="translate(-19.92 259.85) rotate(-11.91)" fill="#31bacd" stroke="#31bacd" stroke-miterlimit="10" stroke-width="19"/><rect x="1553.66" y="80.45" width="218.27" height="109.64" transform="translate(7.88 346.1) rotate(-11.91)" fill="#31bacd" stroke="#31bacd" stroke-miterlimit="10" stroke-width="19"/><rect x="1389.98" y="604.25" width="218.27" height="114.04" fill="#31bacd" stroke="#31bacd" stroke-miterlimit="10" stroke-width="19"/><rect x="82.87" y="604.25" width="218.27" height="114.04" fill="#31bacd" stroke="#31bacd" stroke-miterlimit="10" stroke-width="19"/><rect x="544.16" y="604.25" width="218.27" height="114.04" fill="#31bacd" stroke="#31bacd" stroke-miterlimit="10" stroke-width="19"/><rect x="980.82" y="604.25" width="218.27" height="114.04" fill="#31bacd" stroke="#31bacd" stroke-miterlimit="10" stroke-width="19"/><rect x="270.71" y="604.25" width="218.27" height="114.04" fill="#fff" stroke="#902bf5" stroke-miterlimit="10" stroke-width="42"/><rect x="710.42" y="604.25" width="218.27" height="114.04" fill="#fff" stroke="#902bf5" stroke-miterlimit="10" stroke-width="42"/><rect x="1171.71" y="604.25" width="218.27" height="114.04" fill="#fff" stroke="#902bf5" stroke-miterlimit="10" stroke-width="42"/><rect x="1608.37" y="604.25" width="218.27" height="114.04" fill="#fff" stroke="#902bf5" stroke-miterlimit="10" stroke-width="42"/><line x1="351.83" y1="1025.03" x2="1594.23" y2="1025.03" fill="#31bacd" stroke="#31bacd" stroke-miterlimit="10" stroke-width="19"/><line x1="359.62" y1="1367.82" x2="1156.59" y2="1367.82" fill="#31bacd" stroke="#31bacd" stroke-miterlimit="10" stroke-width="19"/><line x1="351.83" y1="1196.43" x2="1299.87" y2="1196.43" fill="#31bacd" stroke="#31bacd" stroke-miterlimit="10" stroke-width="19"/></g></svg>