<?xml version="1.0" encoding="UTF-8"?><svg xmlns="http://www.w3.org/2000/svg" width="1993.79" height="1901.29" viewBox="0 0 1993.79 1901.29"><g id="a"><rect x="23.02" y="220.26" width="1912.26" height="181.44" transform="translate(-43.1 208.78) rotate(-11.91)" fill="#fff" stroke="#902bf5" stroke-miterlimit="10" stroke-width="42"/><rect x="60.52" y="608.6" width="1912.26" height="1271.69" rx="33.87" ry="33.87" fill="#902bf5" stroke="#902bf5" stroke-miterlimit="10" stroke-width="42"/></g><g id="b"><rect x="259.95" y="377.14" width="233.29" height="121.88" transform="translate(-82.31 87.16) rotate(-11.91)" fill="#31bacd" stroke="#31bacd" stroke-miterlimit="10" stroke-width="19"/><rect x="719.8" y="280.15" width="233.29" height="121.88" transform="translate(-52.39 179.98) rotate(-11.91)" fill="#31bacd" stroke="#31bacd" stroke-miterlimit="10" stroke-width="19"/><rect x="1202.2" y="178.39" width="233.29" height="121.88" transform="translate(-21 277.35) rotate(-11.91)" fill="#31bacd" stroke="#31bacd" stroke-miterlimit="10" stroke-width="19"/><rect x="1658.86" y="82.07" width="233.29" height="121.88" transform="translate(8.71 369.52) rotate(-11.91)" fill="#31bacd" stroke="#31bacd" stroke-miterlimit="10" stroke-width="19"/><rect x="1483.88" y="644.1" width="233.29" height="121.88" fill="#31bacd" stroke="#31bacd" stroke-miterlimit="10" stroke-width="19"/><rect x="86.86" y="644.1" width="233.29" height="121.88" fill="#31bacd" stroke="#31bacd" stroke-miterlimit="10" stroke-width="19"/><rect x="579.88" y="644.1" width="233.29" height="121.88" fill="#31bacd" stroke="#31bacd" stroke-miterlimit="10" stroke-width="19"/><rect x="1046.58" y="644.1" width="233.29" height="121.88" fill="#31bacd" stroke="#31bacd" stroke-miterlimit="10" stroke-width="19"/><rect x="287.62" y="644.1" width="233.29" height="121.88" fill="#fff" stroke="#902bf5" stroke-miterlimit="10" stroke-width="42"/><rect x="757.58" y="644.1" width="233.29" height="121.88" fill="#fff" stroke="#902bf5" stroke-miterlimit="10" stroke-width="42"/><rect x="1250.6" y="644.1" width="233.29" height="121.88" fill="#fff" stroke="#902bf5" stroke-miterlimit="10" stroke-width="42"/><rect x="1717.3" y="644.1" width="233.29" height="121.88" fill="#fff" stroke="#902bf5" stroke-miterlimit="10" stroke-width="42"/><line x1="374.32" y1="1093.83" x2="1702.19" y2="1093.83" fill="#31bacd" stroke="#31bacd" stroke-miterlimit="10" stroke-width="19"/><line x1="382.65" y1="1460.2" x2="1234.44" y2="1460.2" fill="#31bacd" stroke="#31bacd" stroke-miterlimit="10" stroke-width="19"/><line x1="374.32" y1="1277.02" x2="1387.58" y2="1277.02" fill="#31bacd" stroke="#31bacd" stroke-miterlimit="10" stroke-width="19"/></g></svg>