<?xml version="1.0" encoding="UTF-8"?><svg xmlns="http://www.w3.org/2000/svg" width="2000.13" height="2000.13" viewBox="0 0 2000.13 2000.13"><g id="a"><rect x=".5" y=".5" width="1999.13" height="1999.13" fill="#fff" stroke="#000" stroke-miterlimit="10"/></g><g id="b"><g id="c"><line x1="71.26" y1="593.43" x2="492.36" y2="593.43" fill="#fff" stroke="#902bf5" stroke-miterlimit="10" stroke-width="42"/><line x1="71.26" y1="928.33" x2="492.36" y2="928.33" fill="#fff" stroke="#902bf5" stroke-miterlimit="10" stroke-width="42"/><line x1="71.26" y1="760.88" x2="492.36" y2="760.88" fill="#fff" stroke="#902bf5" stroke-miterlimit="10" stroke-width="42"/></g><line x1="1516.22" y1="593.43" x2="1937.33" y2="593.43" fill="#fff" stroke="#902bf5" stroke-miterlimit="10" stroke-width="42"/><line x1="1516.22" y1="928.33" x2="1937.33" y2="928.33" fill="#fff" stroke="#902bf5" stroke-miterlimit="10" stroke-width="42"/><line x1="1516.22" y1="760.88" x2="1937.33" y2="760.88" fill="#fff" stroke="#902bf5" stroke-miterlimit="10" stroke-width="42"/></g><g id="d"><rect x="48.32" y="416.95" width="792.82" height="1553.73" rx="82.53" ry="82.53" fill="none" stroke="#902bf5" stroke-miterlimit="10" stroke-width="42"/><rect x="1163.99" y="416.95" width="792.82" height="1553.73" rx="82.53" ry="82.53" fill="none" stroke="#902bf5" stroke-miterlimit="10" stroke-width="42"/><rect x="508.06" y="40.55" width="984.88" height="1930.13" rx="82.53" ry="82.53" fill="#fff" stroke="#902bf5" stroke-miterlimit="10" stroke-width="42"/></g><g id="e"><line x1="529.35" y1="827.59" x2="1472.62" y2="827.59" fill="#fff" stroke="#902bf5" stroke-miterlimit="10" stroke-width="42"/><line x1="529.35" y1="1162.49" x2="1472.62" y2="1162.49" fill="#fff" stroke="#902bf5" stroke-miterlimit="10" stroke-width="42"/><line x1="529.35" y1="995.04" x2="1472.62" y2="995.04" fill="#fff" stroke="#902bf5" stroke-miterlimit="10" stroke-width="42"/><line x1="528.43" y1="325.24" x2="1471.7" y2="325.24" fill="#fff" stroke="#902bf5" stroke-miterlimit="10" stroke-width="42"/><line x1="528.43" y1="660.14" x2="1471.7" y2="660.14" fill="#fff" stroke="#902bf5" stroke-miterlimit="10" stroke-width="42"/><line x1="528.43" y1="492.69" x2="1471.7" y2="492.69" fill="#fff" stroke="#902bf5" stroke-miterlimit="10" stroke-width="42"/><rect x="852.36" y="1512.91" width="300.39" height="277.43" fill="#fff" stroke="#902bf5" stroke-miterlimit="10" stroke-width="42"/></g><g id="f"><rect x="623.15" y="365.37" width="87.19" height="87.19" fill="#902bf5" stroke="#902bf5" stroke-miterlimit="10" stroke-width="19"/><rect x="785.15" y="365.37" width="87.19" height="87.19" fill="#902bf5" stroke="#902bf5" stroke-miterlimit="10" stroke-width="19"/><rect x="1109.15" y="365.37" width="87.19" height="87.19" fill="#902bf5" stroke="#902bf5" stroke-miterlimit="10" stroke-width="19"/><rect x="1271.15" y="365.37" width="87.19" height="87.19" fill="#902bf5" stroke="#902bf5" stroke-miterlimit="10" stroke-width="19"/><rect x="947.15" y="365.37" width="87.19" height="87.19" fill="#31bacd" stroke="#31bacd" stroke-miterlimit="10" stroke-width="19"/><rect x="628.11" y="532.82" width="87.19" height="87.19" fill="#902bf5" stroke="#902bf5" stroke-miterlimit="10" stroke-width="19"/><rect x="790.11" y="532.82" width="87.19" height="87.19" fill="#902bf5" stroke="#902bf5" stroke-miterlimit="10" stroke-width="19"/><rect x="1114.11" y="532.82" width="87.19" height="87.19" fill="#31bacd" stroke="#31bacd" stroke-miterlimit="10" stroke-width="19"/><rect x="1276.11" y="532.82" width="87.19" height="87.19" fill="#902bf5" stroke="#902bf5" stroke-miterlimit="10" stroke-width="19"/><rect x="952.11" y="532.82" width="87.19" height="87.19" fill="#902bf5" stroke="#902bf5" stroke-miterlimit="10" stroke-width="19"/><rect x="628.11" y="700.27" width="87.19" height="87.19" fill="#902bf5" stroke="#902bf5" stroke-miterlimit="10" stroke-width="19"/><rect x="790.11" y="700.27" width="87.19" height="87.19" fill="#31bacd" stroke="#31bacd" stroke-miterlimit="10" stroke-width="19"/><rect x="1114.11" y="700.27" width="87.19" height="87.19" fill="#902bf5" stroke="#902bf5" stroke-miterlimit="10" stroke-width="19"/><rect x="1276.11" y="700.27" width="87.19" height="87.19" fill="#902bf5" stroke="#902bf5" stroke-miterlimit="10" stroke-width="19"/><rect x="952.11" y="700.27" width="87.19" height="87.19" fill="#902bf5" stroke="#902bf5" stroke-miterlimit="10" stroke-width="19"/><rect x="628.11" y="867.72" width="87.19" height="87.19" fill="#902bf5" stroke="#902bf5" stroke-miterlimit="10" stroke-width="19"/><rect x="790.11" y="867.72" width="87.19" height="87.19" fill="#902bf5" stroke="#902bf5" stroke-miterlimit="10" stroke-width="19"/><rect x="1114.11" y="867.72" width="87.19" height="87.19" fill="#902bf5" stroke="#902bf5" stroke-miterlimit="10" stroke-width="19"/><rect x="1276.11" y="867.72" width="87.19" height="87.19" fill="#31bacd" stroke="#31bacd" stroke-miterlimit="10" stroke-width="19"/><rect x="952.11" y="867.72" width="87.19" height="87.19" fill="#902bf5" stroke="#902bf5" stroke-miterlimit="10" stroke-width="19"/><rect x="628.11" y="1035.17" width="87.19" height="87.19" fill="#31bacd" stroke="#31bacd" stroke-miterlimit="10" stroke-width="19"/><rect x="790.11" y="1035.17" width="87.19" height="87.19" fill="#902bf5" stroke="#902bf5" stroke-miterlimit="10" stroke-width="19"/><rect x="1114.11" y="1035.17" width="87.19" height="87.19" fill="#902bf5" stroke="#902bf5" stroke-miterlimit="10" stroke-width="19"/><rect x="1276.11" y="1035.17" width="87.19" height="87.19" fill="#902bf5" stroke="#902bf5" stroke-miterlimit="10" stroke-width="19"/><rect x="952.11" y="1035.17" width="87.19" height="87.19" fill="#902bf5" stroke="#902bf5" stroke-miterlimit="10" stroke-width="19"/><rect x="961.02" y="1608.03" width="87.19" height="87.19" fill="#31bacd" stroke="#31bacd" stroke-miterlimit="10" stroke-width="19"/></g></svg>