<?xml version="1.0" encoding="UTF-8"?><svg id="a" xmlns="http://www.w3.org/2000/svg" width="999.84" height="592.41" viewBox="0 0 999.84 592.41"><path d="M706.01,52.8C662.13,17.6,601.42,0,523.88,0h-176.78V.21c-22.01,.99-40.8,5.75-56.37,14.3-17.6,9.67-34.09,25.81-49.46,48.42C216.1,20.98,180.12,0,133.34,0,93.9,0,61.82,12.61,37.09,37.82,12.36,63.04,0,95.54,0,135.31v451.43H135.68V166.62c0-23.69,6.68-35.54,20.05-35.54,7.13,0,11.92,2.39,14.37,7.17s3.68,14.24,3.68,28.37V456.16h135.68V164.33c0-22.17,6.68-33.26,20.05-33.26,7.13,0,11.86,2.34,14.2,7.01,1.95,3.89,3.07,11.18,3.4,21.77V456.16h135.79V146.73c0-1.29-.1-2.49-.11-3.76v-11.97h45.78c77.75,0,116.63,31.08,116.63,93.24,0,66.17-39.54,99.25-118.63,99.25h-43.67l-.11,132.67c18.71,.89,54.1,.72,62.34,.72,70.18,0,127.7-19.88,172.25-63.55,44.56-43.67,66.84-100.03,66.84-169.1s-26.07-129.33-78.2-171.43Z" fill="#fff"/><g><path d="M166.23,590.6c11.25-7.94,21.84-16.8,31.66-26.46,2.76-2.71,5.45-5.49,8.08-8.33,.63-.67,.01-1.57-.67-1.87-.87-.38-1.91-.18-2.57,.49-8.09,8.31-15.06,17.62-20.84,27.68-.31,.54,.25,1.2,.67,1.44,.59,.33,1.46,.42,2.08,.11,9.4-4.67,17.75-11.29,24.39-19.42l-2.94,.28c.1,.08,.2,.15,.3,.24-.29-.25,0,0,.05,.06,.06,.08,.39,.56,.21,.24,.09,.16,.17,.34,.23,.51,.04,.11,.07,.22,.1,.33,.02,.07,.04,.15,.05,.22-.03-.17-.04-.18-.01-.02,.04,.41,.05,.82,.02,1.23-.02,.26-.05,.53-.1,.79,.04-.23,0,0,0,.04-.04,.18-.08,.37-.12,.55-.53,2.16-1.46,4.2-2.15,6.31-.59,1.81-1.2,4.01-.12,5.76,.52,.84,1.39,1.41,2.32,1.73,2.35,.8,4.46-.11,6.61-1.01,1.59-.66,2.66-.7,4.15,.07s2.44,2.08,2.83,3.66c.31,1.26,2.8,1.33,3.43,.33,5.91-9.42,11.46-19.07,16.52-28.97,4.93-9.65,9.39-19.53,13.45-29.57,2.38-5.89,4.63-11.83,6.78-17.81,.67-1.86-2.95-2.32-3.62-.73-5.57,13.23-10.8,26.84-12.38,41.21-.78,7.09-.61,14.26,.6,21.29,.46,2.67,.96,5.35,1.47,8.01,.31,1.58,.63,3.2,1.31,4.67,1.84,4.01,6.15,6.23,9.76,8.39,.9,.54,2.7,.65,3.13-.6,3.4-9.75,5.84-19.81,7.54-29.99s2.68-20.98,2.88-31.55c.12-6.1-.02-12.2-.41-18.29l-3.49,.69c2.54,3.63,2.12,8.79,1.93,12.99-.12,2.66-.3,5.31-.31,7.97s.17,5.2,.32,7.79c.58,9.83,1.4,19.97,4.62,29.34,1.51,4.4,3.67,8.72,6.96,12.07,.68,.69,1.67,.84,2.57,.49,3.74-1.46,7.35-3.33,10.78-5.42s7.25-4.68,9.55-8.13c1.27-1.91,1.57-3.91,1.98-6.14,.58-3.16,1.09-6.33,1.52-9.5,.88-6.41,1.45-12.86,1.73-19.33,.31-7.29,.23-14.6-.23-21.88-.11-1.82-3.75-1.84-3.75,0,0,10.51,0,21.02,0,31.53,0,5.2,0,10.4,0,15.61,0,2.65,0,5.31,0,7.96,0,2.37-.13,4.77,.03,7.13,.26,3.82,2.38,8.67,7.06,7.61,.54-.12,1.48-.61,1.38-1.32-1.35-9.12-12.5-11.31-19.9-13.01-11.31-2.59-22.66-4.97-34.06-7.12-11.34-2.15-22.73-4.08-34.15-5.79-11.47-1.72-22.97-3.22-34.5-4.5s-23.1-2.35-34.68-3.19c-1.45-.11-2.91-.21-4.36-.31l.5,2.69c11.53-1.74,23.06-3.48,34.59-5.22s22.96-3.46,34.44-5.2,23.06-3.48,34.59-5.22c5.74-.87,11.48-1.73,17.22-2.6,3.79-.57,7.6-1.16,11.29-2.22,.97-.28,1.93-.6,2.9-.91,.23-.08,.65-.18,.12-.04,.17-.04,.35-.1,.52-.15,.36-.1,.73-.18,1.11-.25,.43-.08,.86-.11,1.28-.18,.11-.02-.44,.03-.05,0,.14-.01,.28-.02,.42-.03,.31-.02,.62-.04,.93-.05,1.75-.08,3.5-.06,5.24-.03,1.26,.02,2.52,.05,3.78,.09,.78,.02,1.88-.46,1.88-1.37s-1.11-1.35-1.88-1.37c-3.7-.1-7.45-.27-11.15,.11-1.7,.17-3.27,.66-4.89,1.19-.21,.07-.42,.14-.64,.2-.34,.11,.17-.05,.05-.01-.14,.04-.29,.09-.43,.13-.57,.17-1.15,.32-1.73,.47-1.78,.44-3.58,.79-5.39,1.11-5.64,.98-11.32,1.74-16.98,2.6-11.53,1.74-23.06,3.48-34.59,5.22-11.53,1.74-23.06,3.48-34.59,5.22s-23.17,3.5-34.75,5.24c-1.42,.21-2.84,.43-4.27,.64-.7,.11-1.5,.72-1.34,1.5,.17,.85,1.08,1.14,1.84,1.19,11.25,.77,22.48,1.74,33.7,2.93s22.53,2.6,33.75,4.22,22.31,3.43,33.41,5.45c11.15,2.03,22.27,4.28,33.34,6.73,2.79,.62,5.58,1.25,8.37,1.9,2.02,.47,4.07,.94,5.96,1.59,3.23,1.12,6.92,2.78,8.58,5.98,.39,.74,.67,1.56,.79,2.39l1.38-1.32-.18,.04c-.23,.04-.23,.04-.02,0h-.16c.23,.02,.24,.01,.03-.02l.15,.04c-.1-.04-.19-.08-.28-.13,.27,.22-.13-.12-.15-.14-.24-.2-.71-.93-.92-1.43-.61-1.41-.8-2.9-.81-4.42,0-4.88,0-9.77,0-14.65,0-9.87,0-19.75,0-29.62,0-5.63,0-11.25,0-16.88h-3.75c.79,12.61,.44,25.28-1.06,37.82-.37,3.08-.81,6.16-1.32,9.22-.26,1.56-.54,3.12-.83,4.68-.18,.95-.33,1.9-.74,2.79-.59,1.3-1.84,2.72-2.98,3.77-1.55,1.44-3.28,2.69-5.05,3.84-3.6,2.35-7.47,4.35-11.49,5.92l2.57,.49c-6.08-6.18-8.21-15.45-9.48-23.75-.78-5.08-1.21-10.22-1.53-15.35-.16-2.58-.34-5.17-.37-7.75s.13-5.34,.26-8c.25-5.08,.67-10.92-2.4-15.31-.72-1.03-3.6-.91-3.49,.69,.68,10.63,.59,21.31-.26,31.92-.83,10.34-2.38,20.64-4.8,30.73-1.33,5.56-2.92,11.06-4.81,16.46l3.13-.6c-1.98-1.18-4-2.36-5.84-3.77-.32-.25-.64-.5-.94-.76-.08-.07-.42-.39-.16-.14-.15-.15-.31-.3-.45-.46-.21-.23-.42-.47-.61-.72-.11-.14-.21-.29-.31-.44-.06-.09-.33-.55-.14-.22-.72-1.31-1.11-2.76-1.42-4.21-.48-2.22-.82-4.43-1.25-6.71-1.3-6.86-1.71-13.82-1.13-20.78s2.03-13.52,4.01-20.07c2.33-7.71,5.33-15.2,8.46-22.62l-3.62-.73c-3.74,10.39-7.78,20.68-12.29,30.76-4.38,9.8-9.2,19.41-14.46,28.77-3.07,5.47-6.29,10.85-9.62,16.16l3.43,.33c-.89-3.6-4.45-5.93-8.01-6.21-1.98-.15-3.69,.52-5.48,1.28-.63,.27-1.36,.65-2.03,.51,.19,.04-.65-.37-.18-.05-.15-.1-.54-.5-.27-.17-.06-.08-.34-.48-.24-.3s-.09-.28-.12-.36c-.03-.08-.07-.4-.02-.02,0-.06-.02-.14-.02-.2,0-.25-.02-.5,0-.76,.01-.2,.04-.39,.06-.58,.06-.4-.06,.28,.02-.12,.03-.13,.05-.25,.08-.38,.12-.49,.26-.97,.42-1.45,.71-2.18,1.69-4.28,2.2-6.52,.55-2.45,.44-4.96-1.74-6.58-.82-.61-2.28-.54-2.94,.28-6.27,7.69-14.15,14.03-23.05,18.44l2.75,1.55c5.64-9.82,12.56-18.91,20.46-27.02l-3.24-1.38c-9.18,9.9-19.16,19.05-29.83,27.33-3.05,2.37-6.17,4.67-9.33,6.9-.71,.5-.68,1.43,0,1.94,.74,.55,1.91,.53,2.65,0h0Z" fill="#fff"/><path d="M314.23,582.93c5.41-2.45,10.44-5.76,14.81-9.78s8.19-8.78,11.18-14.02c1.64-2.87,3-5.89,4.09-9.01,.5-1.44-1.77-2.08-2.75-1.55-8.11,4.38-15.26,10.46-20.78,17.85-1.57,2.1-2.99,4.31-4.29,6.59-.27,.47,.12,1.06,.48,1.33,.51,.38,1.21,.47,1.82,.35,9.36-1.76,18.32-5.65,26.01-11.27,2.19-1.61,4.26-3.36,6.24-5.23l-3.49-.69c.5,4.55,.99,9.1,1.49,13.65,.16,1.5,2.17,1.61,3.2,.97,7.32-4.58,14.64-9.15,21.97-13.73,2.08-1.3,4.16-2.6,6.24-3.9l-3.13-1.33c-1.44,2.58-2.52,5.59-2.55,8.57-.02,1.47,.3,2.91,1.07,4.17,.89,1.43,2.49,2.34,4.1,2.7,2.36,.51,4.75-.2,6.96-.99s4.34-1.57,6.51-2.35c4.35-1.57,8.7-3.15,13.05-4.72,4.92-1.78,9.84-3.56,14.76-5.34,.76-.28,1.21-1.19,.67-1.87-.59-.76-1.74-.79-2.57-.49-8.27,2.99-16.53,5.98-24.8,8.97-2.04,.74-4.08,1.48-6.12,2.22-1.04,.38-2.07,.75-3.11,1.13s-1.59,.59-2.63,.79c-.13,.02-.25,.04-.38,.07,0,0-.32,.04-.13,.02,.21-.02-.18,.01-.22,.01-.09,0-.19,0-.28,0-.13,0-.25,0-.37-.01,.3,.01,0,0-.06-.01-.12-.02-.24-.05-.37-.07l-.18-.05c.12,.03,.12,.03,0-.01-.15-.06-.29-.13-.43-.19-.09-.04-.25-.17,.06,.04-.07-.04-.13-.08-.2-.13-.11-.07-.22-.15-.33-.24-.04-.04-.09-.07-.13-.11-.28-.23,.2,.24-.03-.03-.16-.2-.32-.4-.47-.61s0,0,.02,.04c-.03-.07-.07-.13-.1-.2-.07-.13-.12-.27-.18-.41-.1-.27-.18-.54-.25-.82-.08-.34,0,.1-.03-.16-.02-.18-.05-.36-.06-.54-.06-.74-.02-1.49,.08-2.23,.02-.18,.05-.35,.08-.53-.01,.06-.05,.24,0-.04,.02-.11,.05-.22,.07-.33,.09-.38,.18-.76,.29-1.14,.45-1.53,1.08-3,1.86-4.38,.34-.62-.34-1.34-.86-1.55-.76-.3-1.58-.22-2.27,.21-7.32,4.58-14.64,9.15-21.97,13.73-2.08,1.3-4.16,2.6-6.24,3.9l3.2,.97c-.5-4.55-.99-9.1-1.49-13.65-.08-.71-.69-1.2-1.38-1.32-.81-.14-1.53,.07-2.12,.63-.21,.2-.75,.69-1.08,.99-.42,.37-.85,.74-1.28,1.11-.88,.75-1.79,1.47-2.72,2.16-1.8,1.35-3.68,2.61-5.62,3.75-.94,.56-1.67,.96-2.73,1.51s-2.07,1.03-3.13,1.51c-2.06,.92-4.16,1.73-6.31,2.43-.11,.04-.23,.07-.34,.11,0,0-.54,.17-.23,.07-.31,.1-.63,.19-.94,.28-.6,.17-1.2,.33-1.8,.49-1.27,.32-2.54,.6-3.82,.84l2.31,1.68c4.28-7.47,10.28-14.02,17.3-19.02,.98-.7,1.98-1.37,3.01-2.01,.54-.34,1.08-.66,1.62-.98,.1-.06,.2-.12,.3-.17,.02-.01,.46-.26,.22-.13,.3-.17,.6-.33,.91-.5l-2.75-1.55c-.94,2.71-2.1,5.35-3.46,7.88-.66,1.22-1.29,2.28-2.09,3.52s-1.58,2.33-2.43,3.45c-1.74,2.28-3.66,4.43-5.73,6.42-.06,.06-.3,.28-.27,.25,.01-.01-.24,.22-.33,.3-.26,.24-.52,.47-.78,.71-.55,.48-1.1,.96-1.67,1.42-1.11,.91-2.26,1.77-3.44,2.59-1.31,.91-2.66,1.76-4.05,2.56,0,0-.24,.14-.09,.05,.13-.08-.14,.08-.16,.09-.19,.1-.38,.21-.57,.31-.33,.18-.67,.36-1.01,.53-.75,.38-1.51,.74-2.27,1.09s-1.24,1.15-.67,1.87,1.78,.85,2.57,.49h0Z" fill="#fff"/></g><path d="M677.37,453.27c21.97-5.12,42.01-16.35,58.93-31.12,1.7-1.49-.91-2.65-2.27-2.15-13.36,4.9-25.01,13.49-34.62,23.89-.65,.7,.01,1.54,.67,1.87,7.16,3.59,15.52,3.58,22.83,.39,8.17-3.57,14.31-10.47,18.29-18.32,.41-.81-.64-1.58-1.31-1.68-8.35-1.29-10.28,10.99-8.36,16.73,1.37,4.1,5.04,7.09,9.35,7.49,4.61,.43,8.72-1.93,11.71-5.27,4.22-4.7,6.66-10.84,9.08-16.59l-3.62-.73c-2.5,7.6,1.64,15.64,8.87,18.79,3.33,1.45,7.16,1.66,10.51,.16,4.04-1.82,7.4-4.85,10.66-7.78,3.73-3.34,7.55-7,12.41-8.58l-1.89-2.36c-6.85,3.59-10.39,11.13-11.53,18.48-.05,.33,.29,.81,.55,.97,8.97,5.28,19.42,2.33,26.37-4.85,1.86-1.92,3.41-4.09,4.72-6.41,.72-1.28,1.37-2.6,1.92-3.96,.51-1.24,1.33-2.86,1.3-4.21-.04-2.14-1.49-4.68-2.88-6.23s-3.28-2.76-5.36-3.31c-5.05-1.33-9.76,1.45-11.72,6.13-.47,1.12,1,1.69,1.81,1.73,17.71,.96,35.42,1.91,53.13,2.87l-1.33-2.34c-8.43,6.08-14.93,14.34-19.86,23.42-.35,.65,.36,1.3,.86,1.55,6.92,3.34,14.86,2.62,21.47-1.12,7.55-4.27,12.77-11.75,15.61-19.82,.38-1.08-.92-1.76-1.81-1.73-5.56,.19-10.08,3.68-12.83,8.34-.27,.46-.37,.93,0,1.38,5.35,6.44,13.53,5.06,20.83,3.82,9.77-1.65,19.52-3.48,29.23-5.47,19.33-3.97,38.52-8.61,57.53-13.88,10.83-3.01,21.6-6.23,32.31-9.64,.8-.25,1.17-1.19,.67-1.87-.58-.79-1.75-.75-2.57-.49-36.1,11.49-72.95,20.66-110.25,27.34-4.64,.83-9.33,1.87-14.03,2.32-4.03,.38-7.79-.25-10.5-3.5v1.38c2.06-3.48,5.3-6.84,9.6-6.99l-1.81-1.73c-2.54,7.22-7,13.93-13.61,18.01-5.5,3.39-12.07,4.13-17.95,1.3l.86,1.55c4.67-8.61,10.92-16.46,18.9-22.21,1.42-1.03-.17-2.27-1.33-2.34-17.71-.96-35.42-1.91-53.13-2.87l1.81,1.73c1.15-2.75,3.63-5.11,6.82-4.29,1.5,.38,2.78,1.33,3.74,2.52s2.24,3.38,1.92,4.98c-.44,2.22-1.67,4.55-2.76,6.52s-2.37,3.75-3.85,5.39c-2.61,2.9-5.94,5.32-9.71,6.43s-7.99,.69-11.49-1.37l.55,.97c.94-6.08,3.93-13.11,9.67-16.12,2.26-1.19-.19-2.92-1.89-2.36-7.55,2.46-12.63,9.18-18.82,13.76-2.6,1.92-5.47,3.78-8.83,3.12-3.03-.59-5.68-2.58-7.48-5.03-2.44-3.31-3.09-7.46-1.8-11.35,.62-1.89-2.95-2.31-3.62-.73-2.21,5.25-4.4,10.75-8.07,15.19-2.54,3.08-6.78,6.13-10.88,4.04-3.89-1.98-4.88-6.7-4.47-10.68,.19-1.87,.7-3.84,1.67-5.47,.48-.81,1.46-2.26,2.58-2.09l-1.31-1.68c-3.53,6.96-8.99,13.24-16.19,16.51-6.29,2.86-13.22,2.89-19.42-.22l.67,1.87c9.24-10,20.43-18.21,33.27-22.91l-2.27-2.15c-16.47,14.37-35.89,25.44-57.28,30.42-2.39,.56-1.07,3.12,1,2.64h0Z" fill="#fff"/></svg>