<?xml version="1.0" encoding="UTF-8"?><svg xmlns="http://www.w3.org/2000/svg" width="1884.89" height="1905.78" viewBox="0 0 1884.89 1905.78"><g id="a"><rect x="21" y="384.46" width="765.57" height="1500.32" rx="82.53" ry="82.53" fill="#fff" stroke="#902bf5" stroke-miterlimit="10" stroke-width="42"/><rect x="1098.32" y="384.46" width="765.57" height="1500.32" rx="82.53" ry="82.53" fill="#fff" stroke="#902bf5" stroke-miterlimit="10" stroke-width="42"/><rect x="464.94" y="21" width="951.03" height="1863.78" rx="82.53" ry="82.53" fill="#fff" stroke="#902bf5" stroke-miterlimit="10" stroke-width="42"/></g><g id="b"><g id="c"><line x1="33.83" y1="554.88" x2="449.78" y2="554.88" fill="#fff" stroke="#902bf5" stroke-miterlimit="10" stroke-width="42"/><line x1="33.83" y1="878.26" x2="449.78" y2="878.26" fill="#fff" stroke="#902bf5" stroke-miterlimit="10" stroke-width="42"/><line x1="33.83" y1="716.57" x2="449.78" y2="716.57" fill="#fff" stroke="#902bf5" stroke-miterlimit="10" stroke-width="42"/></g><line x1="1430.54" y1="554.88" x2="1845.08" y2="554.88" fill="#fff" stroke="#902bf5" stroke-miterlimit="10" stroke-width="42"/><line x1="1430.54" y1="878.26" x2="1845.08" y2="878.26" fill="#fff" stroke="#902bf5" stroke-miterlimit="10" stroke-width="42"/><line x1="1430.54" y1="716.57" x2="1845.08" y2="716.57" fill="#fff" stroke="#902bf5" stroke-miterlimit="10" stroke-width="42"/></g><g id="d"><line x1="485.5" y1="780.99" x2="1396.35" y2="780.99" fill="#fff" stroke="#902bf5" stroke-miterlimit="10" stroke-width="42"/><line x1="485.5" y1="1104.38" x2="1396.35" y2="1104.38" fill="#fff" stroke="#902bf5" stroke-miterlimit="10" stroke-width="42"/><line x1="485.5" y1="942.69" x2="1396.35" y2="942.69" fill="#fff" stroke="#902bf5" stroke-miterlimit="10" stroke-width="42"/><line x1="484.61" y1="295.91" x2="1395.46" y2="295.91" fill="#fff" stroke="#902bf5" stroke-miterlimit="10" stroke-width="42"/><line x1="484.61" y1="619.3" x2="1395.46" y2="619.3" fill="#fff" stroke="#902bf5" stroke-miterlimit="10" stroke-width="42"/><line x1="484.61" y1="457.61" x2="1395.46" y2="457.61" fill="#fff" stroke="#902bf5" stroke-miterlimit="10" stroke-width="42"/><rect x="797.41" y="1442.76" width="290.06" height="267.9" fill="#fff" stroke="#902bf5" stroke-miterlimit="10" stroke-width="42"/></g><g id="e"><rect x="576.08" y="334.66" width="84.2" height="84.2" fill="#902bf5" stroke="#902bf5" stroke-miterlimit="10" stroke-width="19"/><rect x="732.51" y="334.66" width="84.2" height="84.2" fill="#902bf5" stroke="#902bf5" stroke-miterlimit="10" stroke-width="19"/><rect x="1045.37" y="334.66" width="84.2" height="84.2" fill="#902bf5" stroke="#902bf5" stroke-miterlimit="10" stroke-width="19"/><rect x="1201.8" y="334.66" width="84.2" height="84.2" fill="#902bf5" stroke="#902bf5" stroke-miterlimit="10" stroke-width="19"/><rect x="888.94" y="334.66" width="84.2" height="84.2" fill="#31bacd" stroke="#31bacd" stroke-miterlimit="10" stroke-width="19"/><rect x="580.86" y="496.35" width="84.2" height="84.2" fill="#902bf5" stroke="#902bf5" stroke-miterlimit="10" stroke-width="19"/><rect x="737.29" y="496.35" width="84.2" height="84.2" fill="#902bf5" stroke="#902bf5" stroke-miterlimit="10" stroke-width="19"/><rect x="1050.15" y="496.35" width="84.2" height="84.2" fill="#31bacd" stroke="#31bacd" stroke-miterlimit="10" stroke-width="19"/><rect x="1206.59" y="496.35" width="84.2" height="84.2" fill="#902bf5" stroke="#902bf5" stroke-miterlimit="10" stroke-width="19"/><rect x="893.72" y="496.35" width="84.2" height="84.2" fill="#902bf5" stroke="#902bf5" stroke-miterlimit="10" stroke-width="19"/><rect x="580.86" y="658.05" width="84.2" height="84.2" fill="#902bf5" stroke="#902bf5" stroke-miterlimit="10" stroke-width="19"/><rect x="737.29" y="658.05" width="84.2" height="84.2" fill="#31bacd" stroke="#31bacd" stroke-miterlimit="10" stroke-width="19"/><rect x="1050.15" y="658.05" width="84.2" height="84.2" fill="#902bf5" stroke="#902bf5" stroke-miterlimit="10" stroke-width="19"/><rect x="1206.59" y="658.05" width="84.2" height="84.2" fill="#902bf5" stroke="#902bf5" stroke-miterlimit="10" stroke-width="19"/><rect x="893.72" y="658.05" width="84.2" height="84.2" fill="#902bf5" stroke="#902bf5" stroke-miterlimit="10" stroke-width="19"/><rect x="580.86" y="819.74" width="84.2" height="84.2" fill="#902bf5" stroke="#902bf5" stroke-miterlimit="10" stroke-width="19"/><rect x="737.29" y="819.74" width="84.2" height="84.2" fill="#902bf5" stroke="#902bf5" stroke-miterlimit="10" stroke-width="19"/><rect x="1050.15" y="819.74" width="84.2" height="84.2" fill="#902bf5" stroke="#902bf5" stroke-miterlimit="10" stroke-width="19"/><rect x="1206.59" y="819.74" width="84.2" height="84.2" fill="#31bacd" stroke="#31bacd" stroke-miterlimit="10" stroke-width="19"/><rect x="893.72" y="819.74" width="84.2" height="84.2" fill="#902bf5" stroke="#902bf5" stroke-miterlimit="10" stroke-width="19"/><rect x="580.86" y="981.44" width="84.2" height="84.2" fill="#31bacd" stroke="#31bacd" stroke-miterlimit="10" stroke-width="19"/><rect x="737.29" y="981.44" width="84.2" height="84.2" fill="#902bf5" stroke="#902bf5" stroke-miterlimit="10" stroke-width="19"/><rect x="1050.15" y="981.44" width="84.2" height="84.2" fill="#902bf5" stroke="#902bf5" stroke-miterlimit="10" stroke-width="19"/><rect x="1206.59" y="981.44" width="84.2" height="84.2" fill="#902bf5" stroke="#902bf5" stroke-miterlimit="10" stroke-width="19"/><rect x="893.72" y="981.44" width="84.2" height="84.2" fill="#902bf5" stroke="#902bf5" stroke-miterlimit="10" stroke-width="19"/><rect x="902.33" y="1534.61" width="84.2" height="84.2" fill="#31bacd" stroke="#31bacd" stroke-miterlimit="10" stroke-width="19"/></g></svg>