<?xml version="1.0" encoding="UTF-8"?><svg id="a" xmlns="http://www.w3.org/2000/svg" width="789" height="365" viewBox="0 0 789 365"><g><rect x="2.5" y="2.5" width="784" height="360" fill="#662d91"/><path d="M784,5V360H5V5H784m5-5H0V365H789V0h0Z" fill="#fff"/></g><g><circle cx="26" cy="316" r="14.5" fill="#ff931e"/><path d="M26,302c7.72,0,14,6.28,14,14s-6.28,14-14,14-14-6.28-14-14,6.28-14,14-14m0-1c-8.28,0-15,6.72-15,15s6.72,15,15,15,15-6.72,15-15-6.72-15-15-15h0Z"/></g><g><circle cx="26" cy="48" r="14.5" fill="#ff931e"/><path d="M26,34c7.72,0,14,6.28,14,14s-6.28,14-14,14-14-6.28-14-14,6.28-14,14-14m0-1c-8.28,0-15,6.72-15,15s6.72,15,15,15,15-6.72,15-15-6.72-15-15-15h0Z"/></g><g><circle cx="26" cy="115" r="14.5" fill="#ff931e"/><path d="M26,101c7.72,0,14,6.28,14,14s-6.28,14-14,14-14-6.28-14-14,6.28-14,14-14m0-1c-8.28,0-15,6.72-15,15s6.72,15,15,15,15-6.72,15-15-6.72-15-15-15h0Z"/></g><g><circle cx="26" cy="182" r="14.5" fill="#ff931e"/><path d="M26,168c7.72,0,14,6.28,14,14s-6.28,14-14,14-14-6.28-14-14,6.28-14,14-14m0-1c-8.28,0-15,6.72-15,15s6.72,15,15,15,15-6.72,15-15-6.72-15-15-15h0Z"/></g><g><circle cx="26" cy="249" r="14.5" fill="#ff931e"/><path d="M26,235c7.72,0,14,6.28,14,14s-6.28,14-14,14-14-6.28-14-14,6.28-14,14-14m0-1c-8.28,0-15,6.72-15,15s6.72,15,15,15,15-6.72,15-15-6.72-15-15-15h0Z"/></g><g><circle cx="764" cy="316" r="14.5" fill="#ff931e"/><path d="M764,302c7.72,0,14,6.28,14,14s-6.28,14-14,14-14-6.28-14-14,6.28-14,14-14m0-1c-8.28,0-15,6.72-15,15s6.72,15,15,15,15-6.72,15-15-6.72-15-15-15h0Z"/></g><g><circle cx="764" cy="48" r="14.5" fill="#ff931e"/><path d="M764,34c7.72,0,14,6.28,14,14s-6.28,14-14,14-14-6.28-14-14,6.28-14,14-14m0-1c-8.28,0-15,6.72-15,15s6.72,15,15,15,15-6.72,15-15-6.72-15-15-15h0Z"/></g><g><circle cx="764" cy="115" r="14.5" fill="#ff931e"/><path d="M764,101c7.72,0,14,6.28,14,14s-6.28,14-14,14-14-6.28-14-14,6.28-14,14-14m0-1c-8.28,0-15,6.72-15,15s6.72,15,15,15,15-6.72,15-15-6.72-15-15-15h0Z"/></g><g><circle cx="764" cy="182" r="14.5" fill="#ff931e"/><path d="M764,168c7.72,0,14,6.28,14,14s-6.28,14-14,14-14-6.28-14-14,6.28-14,14-14m0-1c-8.28,0-15,6.72-15,15s6.72,15,15,15,15-6.72,15-15-6.72-15-15-15h0Z"/></g><g><circle cx="764" cy="249" r="14.5" fill="#ff931e"/><path d="M764,235c7.72,0,14,6.28,14,14s-6.28,14-14,14-14-6.28-14-14,6.28-14,14-14m0-1c-8.28,0-15,6.72-15,15s6.72,15,15,15,15-6.72,15-15-6.72-15-15-15h0Z"/></g><g><circle cx="362" cy="48" r="14.5" fill="#ff931e"/><path d="M362,34c7.72,0,14,6.28,14,14s-6.28,14-14,14-14-6.28-14-14,6.28-14,14-14m0-1c-8.28,0-15,6.72-15,15s6.72,15,15,15,15-6.72,15-15-6.72-15-15-15h0Z"/></g><g><circle cx="94" cy="48" r="14.5" fill="#ff931e"/><path d="M94,34c7.72,0,14,6.28,14,14s-6.28,14-14,14-14-6.28-14-14,6.28-14,14-14m0-1c-8.28,0-15,6.72-15,15s6.72,15,15,15,15-6.72,15-15-6.72-15-15-15h0Z"/></g><g><circle cx="161" cy="48" r="14.5" fill="#ff931e"/><path d="M161,34c7.72,0,14,6.28,14,14s-6.28,14-14,14-14-6.28-14-14,6.28-14,14-14m0-1c-8.28,0-15,6.72-15,15s6.72,15,15,15,15-6.72,15-15-6.72-15-15-15h0Z"/></g><g><circle cx="228" cy="48" r="14.5" fill="#ff931e"/><path d="M228,34c7.72,0,14,6.28,14,14s-6.28,14-14,14-14-6.28-14-14,6.28-14,14-14m0-1c-8.28,0-15,6.72-15,15s6.72,15,15,15,15-6.72,15-15-6.72-15-15-15h0Z"/></g><g><circle cx="295" cy="48" r="14.5" fill="#ff931e"/><path d="M295,34c7.72,0,14,6.28,14,14s-6.28,14-14,14-14-6.28-14-14,6.28-14,14-14m0-1c-8.28,0-15,6.72-15,15s6.72,15,15,15,15-6.72,15-15-6.72-15-15-15h0Z"/></g><g><circle cx="697" cy="48" r="14.5" fill="#ff931e"/><path d="M697,34c7.72,0,14,6.28,14,14s-6.28,14-14,14-14-6.28-14-14,6.28-14,14-14m0-1c-8.28,0-15,6.72-15,15s6.72,15,15,15,15-6.72,15-15-6.72-15-15-15h0Z"/></g><g><circle cx="429" cy="48" r="14.5" fill="#ff931e"/><path d="M429,34c7.72,0,14,6.28,14,14s-6.28,14-14,14-14-6.28-14-14,6.28-14,14-14m0-1c-8.28,0-15,6.72-15,15s6.72,15,15,15,15-6.72,15-15-6.72-15-15-15h0Z"/></g><g><circle cx="496" cy="48" r="14.5" fill="#ff931e"/><path d="M496,34c7.72,0,14,6.28,14,14s-6.28,14-14,14-14-6.28-14-14,6.28-14,14-14m0-1c-8.28,0-15,6.72-15,15s6.72,15,15,15,15-6.72,15-15-6.72-15-15-15h0Z"/></g><g><circle cx="563" cy="48" r="14.5" fill="#ff931e"/><path d="M563,34c7.72,0,14,6.28,14,14s-6.28,14-14,14-14-6.28-14-14,6.28-14,14-14m0-1c-8.28,0-15,6.72-15,15s6.72,15,15,15,15-6.72,15-15-6.72-15-15-15h0Z"/></g><g><circle cx="630" cy="48" r="14.5" fill="#ff931e"/><path d="M630,34c7.72,0,14,6.28,14,14s-6.28,14-14,14-14-6.28-14-14,6.28-14,14-14m0-1c-8.28,0-15,6.72-15,15s6.72,15,15,15,15-6.72,15-15-6.72-15-15-15h0Z"/></g><polygon points="67.53 133.08 106.65 78.75 218.4 154.47 254.94 93.77 284.1 235.33 166.71 242.07 191.31 208.11 67.53 133.08" fill="#ff931e" stroke="#000" stroke-miterlimit="10" stroke-width="2"/><polygon points="693.61 86.66 710.4 115.98 655.44 185.21 680.82 234.59 580.56 207.16 600.68 124.45 630.56 156.17 693.61 86.66" fill="#ff931e" stroke="#000" stroke-miterlimit="10" stroke-width="2"/></svg>